<svg width="2298" height="363" viewBox="0 0 2298 363" fill="none" xmlns="http://www.w3.org/2000/svg">
<g clip-path="url(#clip0)">
<path fill-rule="evenodd" clip-rule="evenodd" d="M0.412391 106.339L122.077 5.8136H218.395L122.077 347.594L522.557 5.8136H694.917L512.409 156.593L644.214 357.647H517.489C463.487 356.555 450.229 344.647 436.378 332.502C422.147 320.025 393.58 264.7 390.752 257.114C348.503 290.617 306.258 324.128 264.015 357.647H0.412391L66.3149 141.516L0.412391 201.808V106.339ZM223.463 5.8136L314.717 151.566L441.45 46.0209C432.083 36.751 421.906 28.3406 411.035 20.8905C395.552 11.1609 369.462 5.66302 340.064 5.81752H223.463V5.8136Z" fill="url(#paint0_linear)"/>
<path fill-rule="evenodd" clip-rule="evenodd" d="M613.848 248.221C615.526 322.516 668.845 362.705 770.616 362.705C882.514 362.705 946.377 314.471 950.608 245.802C953.624 196.815 929.846 163.183 832.958 138.611C786.491 126.906 771.117 120.485 772.279 101.456C773.38 83.5564 790.378 70.8951 817.317 70.8951C860.651 70.8951 870.783 90.1132 872.499 106.773H973.153C973.881 55.1288 937.504 0.862305 822.031 0.862305C725.916 0.862305 662.948 47.0308 658.672 116.468C655.693 164.834 684.875 192.715 775.19 216.327C827.076 229.893 837.325 240.387 836.186 258.908C834.678 283.402 810.895 291.692 779.888 291.692C738.628 291.692 719.404 274.151 716.538 248.218H613.848V248.221ZM946.019 354.829H1218.67L1247.11 272.176H1083.65L1156.97 8.77554H1040.37L946.019 354.829ZM1475.77 0.862305C1331.64 0.862305 1264.34 110.842 1258.49 210C1253.46 295.426 1301.04 362.712 1412.23 362.712C1550.97 362.712 1625.54 266.791 1632.16 154.456C1637.2 68.7434 1585.38 0.862305 1475.77 0.862305ZM1466.21 74.4599C1513.56 74.4599 1526.81 107.771 1524.53 146.629C1520.93 207.588 1490.84 287.735 1424.71 287.735C1381.57 287.735 1364.41 257.747 1367.26 209.22C1370.52 153.94 1402.62 74.4599 1466.21 74.4599ZM1673.49 357.655H1789.72L1862.27 93.6139H1965.9L1987.21 10.7954H1663.88L1642.56 93.6139H1746.36L1673.49 357.655ZM1937.24 248.221C1938.92 322.516 1992.29 362.705 2094.14 362.705C2206.14 362.705 2270.06 314.471 2274.29 245.802C2277.31 196.815 2253.51 163.183 2156.55 138.611C2110.04 126.906 2094.64 120.485 2095.81 101.456C2096.92 83.5564 2113.91 70.8951 2140.89 70.8951C2184.26 70.8951 2194.41 90.1132 2196.12 106.773H2296.87C2297.59 55.1288 2261.19 0.862305 2145.61 0.862305C2049.41 0.862305 1986.39 47.0308 1982.11 116.468C1979.13 164.834 2008.34 192.715 2098.74 216.327C2150.67 229.893 2160.93 240.387 2159.79 258.908C2158.28 283.402 2134.48 291.692 2103.44 291.692C2062.14 291.692 2042.91 274.151 2040.02 248.218H1937.24V248.221Z" fill="url(#paint1_linear)"/>
</g>
<defs>
<linearGradient id="paint0_linear" x1="347.664" y1="5.8136" x2="347.664" y2="357.647" gradientUnits="userSpaceOnUse">
<stop stop-color="#C39D5F"/>
<stop offset="0.524211" stop-color="#FEE5A5"/>
<stop offset="1" stop-color="#C39D5F"/>
</linearGradient>
<linearGradient id="paint1_linear" x1="1455.36" y1="0.862305" x2="1455.36" y2="362.712" gradientUnits="userSpaceOnUse">
<stop stop-color="#D6D6D6"/>
<stop offset="0.537915" stop-color="white"/>
<stop offset="1" stop-color="#C2C2C2"/>
</linearGradient>
<clipPath id="clip0">
<rect x="0.174171" width="2297" height="363" fill="white"/>
</clipPath>
</defs>
</svg>
